<svg xmlns="http://www.w3.org/2000/svg" width="51" height="51" viewBox="0 0 51 51" fill="none"><path d="M8.47278 36.6153L9.39586 36.9999L8.47278 36.6153ZM6.70195 40.8653L7.62502 41.2499L6.70195 40.8653ZM44.2981 40.8653L43.375 41.2499V41.2499L44.2981 40.8653ZM42.5273 36.6153L43.4503 36.2307V36.2307L42.5273 36.6153ZM34 32.9999C33.4477 32.9999 33 33.4477 33 33.9999C33 34.5522 33.4477 34.9999 34 34.9999V32.9999ZM17 34.9999C17.5523 34.9999 18 34.5522 18 33.9999C18 33.4477 17.5523 32.9999 17 32.9999V34.9999ZM39.375 19.3611C39.375 23.209 37.204 27.7116 34.2565 31.3004C32.795 33.08 31.1794 34.5884 29.6177 35.6435C28.0345 36.7132 26.6068 37.2499 25.5 37.2499V39.2499C27.1823 39.2499 29.0085 38.4688 30.7373 37.3008C32.4876 36.1182 34.2421 34.4692 35.8021 32.5698C38.8976 28.8006 41.375 23.8588 41.375 19.3611H39.375ZM25.5 37.2499C24.3933 37.2499 22.9656 36.7132 21.3824 35.6435C19.8206 34.5884 18.205 33.08 16.7435 31.3004C13.7961 27.7116 11.625 23.209 11.625 19.3611H9.62502C9.62502 23.8588 12.1024 28.8006 15.1979 32.5698C16.7579 34.4692 18.5124 36.1182 20.2627 37.3008C21.9915 38.4688 23.8177 39.2499 25.5 39.2499V37.2499ZM11.625 19.3611C11.625 11.5528 17.8519 5.24994 25.5 5.24994V3.24994C16.7177 3.24994 9.62502 10.478 9.62502 19.3611H11.625ZM25.5 5.24994C33.1482 5.24994 39.375 11.5528 39.375 19.3611H41.375C41.375 10.478 34.2823 3.24994 25.5 3.24994V5.24994ZM29.8125 19.1249C29.8125 21.5067 27.8818 23.4374 25.5 23.4374V25.4374C28.9863 25.4374 31.8125 22.6112 31.8125 19.1249H29.8125ZM25.5 23.4374C23.1183 23.4374 21.1875 21.5067 21.1875 19.1249H19.1875C19.1875 22.6112 22.0137 25.4374 25.5 25.4374V23.4374ZM21.1875 19.1249C21.1875 16.7432 23.1183 14.8124 25.5 14.8124V12.8124C22.0137 12.8124 19.1875 15.6386 19.1875 19.1249H21.1875ZM25.5 14.8124C27.8818 14.8124 29.8125 16.7432 29.8125 19.1249H31.8125C31.8125 15.6386 28.9863 12.8124 25.5 12.8124V14.8124ZM7.5497 36.2307L5.77887 40.4807L7.62502 41.2499L9.39586 36.9999L7.5497 36.2307ZM10.625 47.7499H40.375V45.7499H10.625V47.7499ZM45.2212 40.4807L43.4503 36.2307L41.6042 36.9999L43.375 41.2499L45.2212 40.4807ZM38.6042 32.9999H34V34.9999H38.6042V32.9999ZM12.3959 34.9999H17V32.9999H12.3959V34.9999ZM43.4503 36.2307C42.6352 34.2743 40.7236 32.9999 38.6042 32.9999V34.9999C39.9162 34.9999 41.0996 35.7888 41.6042 36.9999L43.4503 36.2307ZM40.375 47.7499C44.1213 47.7499 46.6621 43.9388 45.2212 40.4807L43.375 41.2499C44.267 43.3907 42.6942 45.7499 40.375 45.7499V47.7499ZM5.77887 40.4807C4.33799 43.9388 6.87874 47.7499 10.625 47.7499V45.7499C8.30589 45.7499 6.73305 43.3907 7.62502 41.2499L5.77887 40.4807ZM9.39586 36.9999C9.90048 35.7888 11.0838 34.9999 12.3959 34.9999V32.9999C10.2764 32.9999 8.36487 34.2743 7.5497 36.2307L9.39586 36.9999Z" fill="#C3996B"></path></svg>