<svg xmlns="http://www.w3.org/2000/svg" width="47" height="47" viewBox="0 0 47 47" fill="none"><path d="M41.125 37.2083V33.985C41.125 32.3835 40.1499 30.9433 38.6629 30.3485L34.6794 28.7551C32.7881 27.9986 30.6326 28.8181 29.7216 30.6401L29.375 31.3333C29.375 31.3333 24.4792 30.3542 20.5625 26.4375C16.6458 22.5208 15.6667 17.625 15.6667 17.625L16.3599 17.2784C18.1819 16.3674 19.0014 14.2119 18.2449 12.3206L16.6515 8.33705C16.0567 6.85006 14.6165 5.875 13.015 5.875H9.79167C7.62855 5.875 5.875 7.62855 5.875 9.79167C5.875 27.0966 19.9034 41.125 37.2083 41.125C39.3715 41.125 41.125 39.3715 41.125 37.2083Z" stroke="#C3996B" stroke-width="2" stroke-linejoin="round"></path></svg>