<svg width="379" height="258" viewBox="0 0 379 258" fill="none" xmlns="http://www.w3.org/2000/svg">
<g clip-path="url(#clip0_10_2)">
<path d="M378.93 202.83L324.23 257.54L324.15 257.47L265.41 198.72L257.04 190.36L311.9 134.13L378.93 202.83Z" fill="#1E1E1E"/>
<path d="M374.33 59.44L180.02 255.34C171.2 245.39 159.84 237.75 146.95 233.44C146.34 233.24 145.73 233.03 145.12 232.85C144.67 232.71 144.21 232.58 143.76 232.44C136.92 230.44 129.69 229.38 122.21 229.38C99.98 229.38 79.94 238.79 65.87 253.83L2.49 191.38L129.48 64.4C129.5 63.15 129.25 61.69 128.39 60.3C127.23 58.41 125.25 57.14 123 56.7L57.85 123.06L0 65.2L65.31 0C79.38 15.68 99.8 25.53 122.51 25.53C139.89 25.53 155.94 19.75 168.82 10.01L179.55 0L186.91 6.97L187 6.88L243.72 63.6L119.65 187.67C119.65 187.67 116.42 196.11 121.71 196.11C122.68 196.11 123.93 195.82 125.54 195.16L185.2 134.07L185.39 133.87L186.28 132.97L191.09 128.17L191.07 128.15L317.06 2.17L374.33 59.44Z" fill="#1E1E1E"/>
</g>
<defs>
<clipPath id="clip0_10_2">
<rect width="378.93" height="257.54" fill="white"/>
</clipPath>
</defs>
</svg>
