<?xml version="1.0" encoding="UTF-8"?>
<svg xmlns="http://www.w3.org/2000/svg" xmlns:xlink="http://www.w3.org/1999/xlink" viewBox="0 0 48 48" width="48px" height="48px">
<g id="surface92776698">
<path style=" stroke:none;fill-rule:nonzero;fill:rgb(29.803923%,68.627453%,31.37255%);fill-opacity:1;" d="M 45 16.199219 L 40 18.949219 L 35 23.699219 L 35 40 L 42 40 C 43.65625 40 45 38.65625 45 37 Z M 45 16.199219 "/>
<path style=" stroke:none;fill-rule:nonzero;fill:rgb(11.764706%,53.333336%,89.803922%);fill-opacity:1;" d="M 3 16.199219 L 6.613281 17.910156 L 13 23.699219 L 13 40 L 6 40 C 4.34375 40 3 38.65625 3 37 Z M 3 16.199219 "/>
<path style=" stroke:none;fill-rule:nonzero;fill:rgb(89.803922%,22.352941%,20.784314%);fill-opacity:1;" d="M 35 11.199219 L 24 19.449219 L 13 11.199219 L 12 17 L 13 23.699219 L 24 31.949219 L 35 23.699219 L 36 17 Z M 35 11.199219 "/>
<path style=" stroke:none;fill-rule:nonzero;fill:rgb(77.64706%,15.686275%,15.686275%);fill-opacity:1;" d="M 3 12.296875 L 3 16.199219 L 13 23.699219 L 13 11.199219 L 9.875 8.859375 C 9.132812 8.300781 8.226562 8 7.296875 8 C 4.925781 8 3 9.925781 3 12.296875 Z M 3 12.296875 "/>
<path style=" stroke:none;fill-rule:nonzero;fill:rgb(98.431373%,75.294119%,17.647059%);fill-opacity:1;" d="M 45 12.296875 L 45 16.199219 L 35 23.699219 L 35 11.199219 L 38.125 8.859375 C 38.867188 8.300781 39.773438 8 40.703125 8 C 43.074219 8 45 9.925781 45 12.296875 Z M 45 12.296875 "/>
<path style=" stroke:none;fill-rule:nonzero;fill:rgb(26.274511%,62.7451%,27.843139%);fill-opacity:1;" d="M 48 38 C 48 43.5 43.5 48 38 48 C 32.5 48 28 43.5 28 38 C 28 32.5 32.5 28 38 28 C 43.5 28 48 32.5 48 38 "/>
<path style=" stroke:none;fill-rule:nonzero;fill:rgb(100%,100%,100%);fill-opacity:1;" d="M 44 36 L 40 36 L 40 32 L 36 32 L 36 36 L 32 36 L 32 40 L 36 40 L 36 44 L 40 44 L 40 40 L 44 40 Z M 44 36 "/>
</g>
</svg>
